<svg xmlns="http://www.w3.org/2000/svg" width="2560" height="2560" viewBox="0 0 2560 2560"><path d="M-1602.532 2168.839c-65.344-2.142-138.408-7.655-218.226-16.466-73.614-8.126-162.812-20.654-312.891-43.944-271.891-42.194-394.349-56.841-522.15-62.455-12.879-.566-28.193-1.265-34.031-1.553-209.485-10.35-437.05 25.999-614.445 98.144-7.522 3.06-14.686 5.955-15.919 6.434l-2.242.871v-486.802l22.67-8.985c219.425-86.974 450.297-113.929 750.59-87.633 100.12 8.767 190.278 20.55 375.17 49.036 220.424 33.96 282.323 42.62 374.174 52.348 333.469 35.315 584.634 8.769 815.86-86.232l13.205-5.426-.25 243.45-.252 243.448-11.958 4.977c-179.094 74.54-387.14 108.398-619.305 100.788m5.21-1060.906c-144.541-4.739-251.963-16.955-545.295-62.013-236.495-36.328-317.802-46.87-431.471-55.943-288.757-23.05-521.983 6.45-733.652 92.798l-14.7 5.996.251-243.027.251-243.027 15.644-6.347c139.836-56.738 281.895-87.217 455.188-97.66 29.262-1.762 163.465-1.75 195.308.019 146.254 8.125 243.467 19.739 512.184 61.19 260.847 40.239 355.012 51.74 486.775 59.46 254.387 14.901 475.18-17.105 671.121-97.287l14.449-5.913.251 242.56c.2 193.39 0 242.72-.996 243.35-2.764 1.751-47.487 19.152-68.51 26.655-165.309 59.008-353.96 85.838-556.799 79.188" style="fill:#fefefe;stroke-width:.998234" transform="translate(3422.153 -52.92)"/><path d="m-3401.906 1986.2.251-286.72 20.428-9.76c20.903-9.987 56.412-25.8 57.938-25.8.467 0 .962 109.304 1.1 242.899l.251 242.898 15.644-6.347c180.222-73.125 405.913-109.351 616.464-98.95 5.838.29 21.152.988 34.032 1.554 127.8 5.614 250.258 20.261 522.149 62.455 271.812 42.181 392.334 55.793 535.602 60.491 228.018 7.477 436.802-26.777 614.82-100.87l11.958-4.976.251-243.455.251-243.454 5.23-2.239c15.157-6.486 42.072-18.723 56.947-25.891 9.262-4.463 16.997-8.115 17.189-8.115.191 0 .348 128.92.348 286.487v286.488l-6.996 3.535c-239.62 121.099-516.098 161.44-873.384 127.435-46.197-4.397-109.21-11.867-168.901-20.023-48.422-6.617-82.19-11.652-210.753-31.425-207.485-31.91-274.487-41.004-371.683-50.444-350.725-34.064-614.152 3.48-861.846 122.832-9.262 4.463-16.999 8.115-17.191 8.115s-.237-129.024-.1-286.72zm-.247-1147.356V552.77l20.178-9.812c198.214-96.384 449.59-144.52 692.145-132.536 5.838.288 21.152.987 34.031 1.553 127.801 5.614 250.259 20.261 522.15 62.455 174.42 27.068 255.704 38.176 350.757 47.936 354.237 36.37 620.563-.392 871.597-120.312 10.515-5.023 19.37-9.133 19.68-9.133s.562 128.732.562 286.07v286.071l-16.691 8.112c-9.18 4.46-27.004 12.709-39.61 18.329l-22.919 10.217-.498-242.77-.498-242.77-14.449 5.913c-195.94 80.182-416.734 112.188-671.121 97.286-131.763-7.718-225.928-19.22-486.775-59.458-268.717-41.452-365.93-53.066-512.184-61.191-31.843-1.77-166.046-1.781-195.308-.018-173.293 10.442-315.352 40.92-455.188 97.659l-15.644 6.347-.498 243.191-.498 243.19-5.979 2.524c-13.597 5.737-32.096 14.125-51.663 23.425-11.425 5.43-20.954 9.873-21.175 9.873s-.402-128.734-.402-286.076" style="fill:#d0d0d0;stroke-width:.998234" transform="translate(3422.153 -52.92)"/><path d="M-1597.485 1681.929c-55.498-1.816-116.51-5.931-179.428-12.101-89.082-8.737-185.125-21.833-362.217-49.39-221.39-34.452-326.49-48.033-440.937-56.979-284.43-22.231-517.483 7.656-727.671 93.32l-14.698 5.99v-573.624l20.527-8.193c224.314-89.523 461.45-116 774.655-86.489 95.992 9.045 177.138 19.938 372.18 49.965 165.824 25.529 205.263 31.287 273.531 39.94 378.487 47.967 642.532 26.073 890.319-73.826 10.398-4.192 19.254-7.622 19.68-7.622s.773 128.876.773 286.39v286.392l-12.705 5.255c-179.024 74.045-387.778 108.374-614.009 100.972" style="fill:#0083d6;stroke-width:.998234" transform="translate(3422.153 -52.92)"/><path d="M-3401.156 1412.015v-286.729l19.68-9.36c21.866-10.401 56.757-26.006 58.145-26.006.527 0 .895 117.774.895 286.531v286.532l-1.744.626c-5.115 1.838-36.373 15.89-55.298 24.86l-21.678 10.274zm2430.385-122.968v-286.705l21.175-9.371c11.646-5.154 29.359-13.317 39.36-18.139l18.186-8.768v573.55l-15.196 7.318a1438 1438 0 0 1-51.318 23.509l-12.207 5.312z" style="fill:#006baf;stroke-width:.998234" transform="translate(3422.153 -52.92)"/></svg>